# Blender v2.62 (sub 0) OBJ File: 'remibox.blend'
# www.blender.org
v 0.255000 0.355000 0.510000
v 0.255000 -0.355000 0.510000
v -0.255000 -0.355000 0.510000
v -0.255000 0.355000 0.510000
v 0.195002 0.310000 0.475000
v 0.195000 -0.310000 0.475000
v -0.195001 -0.310000 0.475000
v -0.194999 0.310000 0.475000
v 0.195002 0.310000 0.510000
v 0.195000 -0.310000 0.510000
v -0.195001 -0.310000 0.510000
v -0.194999 0.310000 0.510000
vt 0.000000 0.000000
vt 1.000000 0.000000
vt 1.000000 1.000000
vn 0.000000 1.000000 0.000000
vn -1.000000 0.000004 0.000000
vn 0.000000 -1.000000 0.000000
vn 1.000000 -0.000004 0.000000
vn 0.000000 -0.000000 -1.000000
s off
f 8/1/1 12/2/1 9/3/1
f 8/1/1 9/2/1 5/3/1
f 7/1/2 11/2/2 12/3/2
f 7/1/2 12/2/2 8/3/2
f 6/1/3 10/2/3 11/3/3
f 6/1/3 11/2/3 7/3/3
f 5/1/4 9/2/4 10/3/4
f 5/1/4 10/2/4 6/3/4
f 2/1/5 3/2/5 10/3/5
f 3/1/5 11/2/5 10/3/5
f 3/1/5 12/2/5 11/3/5
f 3/1/5 4/2/5 12/3/5
f 4/1/5 9/2/5 12/3/5
f 1/1/5 9/2/5 4/3/5
f 1/1/5 2/2/5 9/3/5
f 2/1/5 10/2/5 9/3/5
