# Blender3D v249 OBJ File: house.blend
# www.blender3d.org
v 0.250000 0.500000 0.000000
v 0.250000 -0.500000 0.000000
v -0.250000 -0.500000 0.000000
v -0.250000 0.500000 0.000000
v 0.250000 0.500000 0.500000
v 0.250000 -0.500000 0.500000
v -0.250000 -0.500000 0.500000
v -0.250000 0.500000 0.500000
vn 0.000001 1.000000 0.000000
vn 0.000000 1.000000 -0.000000
vn -1.000000 0.000000 -0.000000
vn -0.000000 -1.000000 -0.000000
vn -0.000001 -1.000000 0.000001
vn 1.000000 -0.000000 -0.000000
vn -0.000000 0.000000 1.000000
vn 0.000000 0.000000 -1.000000
usemtl (null)
s off
f 5//1 1//1 8//1
f 1//2 4//2 8//2
f 3//3 7//3 4//3
f 7//3 8//3 4//3
f 2//4 6//4 3//4
f 6//5 7//5 3//5
f 1//6 5//6 2//6
f 5//6 6//6 2//6
f 5//7 8//7 7//7
f 5//7 7//7 6//7
f 1//8 2//8 3//8
f 1//8 3//8 4//8
