# Blender3D v249 OBJ File: house.blend
# www.blender3d.org
v -0.000000 0.500000 0.750000
v 0.300000 0.500000 0.500000
v -0.300000 0.500000 0.500000
v 0.000000 -0.500000 0.750000
v -0.300000 -0.500000 0.500000
v 0.300000 -0.500000 0.500000
vn -0.000000 1.000000 -0.000000
vn 0.000000 -1.000000 0.000000
vn 0.640184 -0.000000 0.768221
vn -0.000000 0.000000 -1.000000
vn -0.640184 -0.000000 0.768221
usemtl (null)
s off
f 1//1 2//1 3//1
f 4//2 5//2 6//2
f 2//3 1//3 4//3
f 2//3 4//3 6//3
f 3//4 2//4 6//4
f 3//4 6//4 5//4
f 1//5 3//5 5//5
f 1//5 5//5 4//5
