# Blender3D v249 OBJ File: house.blend
# www.blender3d.org
v -1.022660 -0.785388 0.109764
v -1.022660 -0.829188 0.109764
v -1.022660 -0.785388 0.259122
v -1.022660 -0.829188 0.259122
v -1.042808 -0.785388 0.259122
v -1.042808 -0.829188 0.259122
v -1.042808 -0.785388 0.143490
v -1.042808 -0.829188 0.143490
v -1.143986 -0.785388 0.259122
v -1.143986 -0.829188 0.259122
v -1.161068 -0.785388 0.259122
v -1.161068 -0.829188 0.259122
v -1.161068 -0.785388 0.109764
v -1.161068 -0.829188 0.109764
v -1.140920 -0.785388 0.109764
v -1.140920 -0.829188 0.109764
v -1.140920 -0.785388 0.224739
v -1.140920 -0.829188 0.224739
v -1.041056 -0.785388 0.109764
v -1.041056 -0.829188 0.109764
vn 0.000000 -1.000000 0.000000
vn -0.000000 1.000000 -0.000000
vn 0.000000 -0.000000 -1.000000
vn -0.754977 -0.000000 -0.655751
vn 1.000000 0.000000 0.000000
vn -1.000000 0.000000 0.000000
vn -0.000000 0.000000 1.000000
vn 0.752577 0.000002 0.658504
vn 0.752577 -0.000000 0.658505
vn -1.000000 -0.000003 0.000000
usemtl (null)
s off
f 2//1 8//1 20//1
f 10//1 12//1 18//1
f 9//2 17//2 11//2
f 1//2 19//2 7//2
f 1//2 7//2 3//2
f 7//2 5//2 3//2
f 7//2 19//2 17//2
f 7//2 17//2 9//2
f 11//2 17//2 13//2
f 17//2 15//2 13//2
f 12//1 14//1 18//1
f 14//1 16//1 18//1
f 8//1 10//1 18//1
f 8//1 18//1 20//1
f 2//1 4//1 8//1
f 4//1 6//1 8//1
f 1//3 2//3 20//3
f 1//3 20//3 19//3
f 18//4 17//4 19//4
f 18//4 19//4 20//4
f 16//5 15//5 17//5
f 16//5 17//5 18//5
f 14//3 13//3 15//3
f 14//3 15//3 16//3
f 12//6 11//6 13//6
f 12//6 13//6 14//6
f 10//7 9//7 11//7
f 10//7 11//7 12//7
f 8//8 7//8 9//8
f 8//9 9//9 10//9
f 6//10 5//10 7//10
f 6//10 7//10 8//10
f 4//7 3//7 5//7
f 4//7 5//7 6//7
f 2//5 1//5 3//5
f 2//5 3//5 4//5
