# Blender3D v249 OBJ File: house.blend
# www.blender3d.org
v -1.523697 -0.946467 0.000000
v -1.223697 -0.846467 0.000000
v -1.223697 -1.046467 0.000000
v -1.223697 -1.046467 0.100000
v -1.223697 -0.846467 0.100000
v -1.523697 -0.946467 0.100000
vn -0.000000 0.000000 -1.000000
vn -0.000000 0.000000 1.000000
vn 1.000000 -0.000001 0.000000
vn -0.316227 0.948683 0.000000
vn -0.316228 -0.948683 -0.000000
usemtl (null)
s off
f 1//1 2//1 3//1
f 4//2 5//2 6//2
f 3//3 2//3 5//3
f 3//3 5//3 4//3
f 2//4 1//4 6//4
f 2//4 6//4 5//4
f 1//5 3//5 4//5
f 1//5 4//5 6//5
v -0.653310 -0.946467 0.000000
v -0.953310 -1.046467 0.000000
v -0.953310 -0.846467 0.000000
v -0.953310 -0.846467 0.100000
v -0.953310 -1.046467 0.100000
v -0.653310 -0.946467 0.100000
vn -1.000000 0.000000 0.000000
vn 0.316228 -0.948683 0.000000
vn 0.316228 0.948683 0.000000
usemtl (null)
s off
f 7//1 8//1 9//1
f 10//2 11//2 12//2
f 9//6 8//6 11//6
f 9//6 11//6 10//6
f 8//7 7//7 12//7
f 8//7 12//7 11//7
f 7//8 9//8 10//8
f 7//8 10//8 12//8
v -1.090941 -1.345097 0.000000
v -1.190941 -1.045097 0.000000
v -0.990941 -1.045097 0.000000
v -0.990941 -1.045097 0.100000
v -1.190941 -1.045097 0.100000
v -1.090941 -1.345097 0.100000
vn 0.000001 1.000000 0.000000
vn -0.948683 -0.316228 -0.000000
vn 0.948683 -0.316228 0.000000
usemtl (null)
s off
f 13//1 14//1 15//1
f 16//2 17//2 18//2
f 15//9 14//9 17//9
f 15//9 17//9 16//9
f 14//10 13//10 18//10
f 14//10 18//10 17//10
f 13//11 15//11 16//11
f 13//11 16//11 18//11
v -1.090941 -0.545399 0.000000
v -0.990941 -0.845399 0.000000
v -1.190941 -0.845399 0.000000
v -1.190941 -0.845399 0.100000
v -0.990941 -0.845399 0.100000
v -1.090941 -0.545399 0.100000
vn -0.000000 -1.000000 -0.000000
vn 0.948683 0.316228 0.000000
vn -0.948683 0.316228 0.000000
usemtl (null)
s off
f 19//1 20//1 21//1
f 22//2 23//2 24//2
f 21//12 20//12 23//12
f 21//12 23//12 22//12
f 20//13 19//13 24//13
f 20//13 24//13 23//13
f 19//14 21//14 22//14
f 19//14 22//14 24//14
