# Blender3D v246 OBJ File: continuity.blend
# www.blender3d.org
v -2.000000 0.000000 2.000000
v -2.000000 3.000000 2.000000
v 0.999999 3.000000 2.000000
v 1.000000 0.000000 2.000000
v -2.000000 -0.000000 -2.000000
v -2.000000 3.000000 -2.000000
v 1.000000 3.000000 -2.000000
v 1.000000 0.000000 -2.000000
v 1.000000 0.000000 -1.000000
v 1.000000 2.000000 -1.000000
v -1.000000 2.000000 -1.000000
v -1.000000 -0.000000 -1.000000
v 1.000000 0.000000 1.000000
v 0.999999 2.000000 1.000000
v -1.000000 2.000000 1.000000
v -1.000000 0.000000 1.000000
vn 1.000000 0.000000 0.000000
vn 0.000000 -1.000000 0.000000
vn 0.000000 0.000000 -1.000000
vn 0.000000 0.000000 1.000000
vn -0.000000 1.000000 -0.000000
vn -1.000000 -0.000000 -0.000000
vn 1.000000 0.000001 0.000000
usemtl Material
s off
f 11//1 15//1 16//1
f 11//1 16//1 12//1
f 10//2 14//2 11//2
f 14//2 15//2 11//2
f 13//3 16//3 14//3
f 16//3 15//3 14//3
f 9//4 10//4 11//4
f 9//4 11//4 12//4
f 8//3 5//3 6//3
f 8//3 6//3 7//3
f 2//4 1//4 4//4
f 2//4 4//4 3//4
f 7//5 6//5 3//5
f 6//5 2//5 3//5
f 1//6 2//6 6//6
f 1//6 6//6 5//6
f 10//1 9//1 8//1
f 10//1 8//1 7//1
f 14//1 10//1 7//1
f 14//1 7//1 3//1
f 14//1 3//1 4//1
f 14//7 4//7 13//7
