# Blender3D v246 OBJ File: diffuselayerdemo.blend
# www.blender3d.org
v 1.000000 0.000000 -1.000000
v 1.000000 2.000000 -1.000000
v -1.000000 2.000000 -1.000000
v -1.000000 -0.000000 -1.000000
v 1.000000 0.000000 1.000000
v 0.999999 2.000000 1.000000
v -1.000000 2.000000 1.000000
v -1.000000 0.000000 1.000000
vn 1.000000 0.000000 0.000000
vn 0.000000 -1.000000 0.000000
vn 0.000000 0.000000 -1.000000
vn 0.000000 0.000000 1.000000
usemtl Material
s off
f 3//1 7//1 8//1
f 3//1 8//1 4//1
f 2//2 6//2 3//2
f 6//2 7//2 3//2
f 5//3 8//3 6//3
f 8//3 7//3 6//3
f 1//4 2//4 3//4
f 1//4 3//4 4//4
