# Blender3D v246 OBJ File: prismdemo.blend
# www.blender3d.org
v -1.000000 -2.000000 0.000000
v 1.000000 -2.000000 0.000000
v 1.000000 -2.000000 6.000000
v -1.000000 2.000000 0.000000
v -1.000000 -2.000000 6.000000
v -1.000000 2.000000 6.000000
v -0.100000 2.000000 0.000000
v -0.100000 2.000000 6.000000
v 0.100000 2.000000 0.000000
v 1.000000 2.000000 0.000000
v 1.000000 2.000000 6.000000
v 0.100000 3.000000 6.000000
v 1.000000 3.000000 6.000000
v 1.000000 3.000000 -1.000000
v 0.100000 3.000000 -1.000000
v -0.100000 3.000000 6.000000
v -0.100000 3.000000 -1.000000
v -2.000000 3.000001 6.000000
v -2.000000 -3.000000 6.000000
v -2.000000 3.000000 -1.000000
v 1.000000 -3.000000 6.000000
v 1.000000 -3.000000 -1.000000
v -2.000000 -3.000000 -1.000000
v 0.100000 3.000000 0.000000
v -0.100000 3.000000 0.000000
v 0.100000 3.000000 1.000000
v -0.100000 3.000000 1.000000
v -0.100000 2.000000 1.000000
v 0.100000 2.000000 1.000000
v 0.100000 2.000000 6.000000
vn 0.000000 0.000000 -1.000000
vn 0.000000 0.000000 1.000000
vn 0.000000 -1.000000 0.000000
vn 0.000001 -1.000000 -0.000000
vn -0.000002 1.000000 -0.000000
vn 0.000000 1.000000 -0.000000
vn 1.000000 -0.000000 0.000000
vn -1.000000 -0.000000 -0.000000
vn 0.000002 1.000000 -0.000000
vn 0.000001 1.000000 -0.000000
vn -0.000001 -1.000000 0.000000
usemtl (null)
s off
f 27//1 26//1 29//1
f 27//1 29//1 28//1
f 16//2 8//2 30//2
f 16//2 30//2 12//2
f 28//3 29//3 30//3
f 28//4 30//4 8//4
f 27//5 16//5 12//5
f 27//6 12//6 26//6
f 2//7 3//7 21//7
f 2//7 21//7 22//7
f 2//7 22//7 14//7
f 2//7 14//7 10//7
f 10//7 14//7 13//7
f 10//7 13//7 11//7
f 3//2 5//2 21//2
f 5//2 19//2 21//2
f 5//2 6//2 19//2
f 6//2 18//2 19//2
f 11//2 13//2 30//2
f 13//2 12//2 30//2
f 6//2 8//2 16//2
f 6//2 16//2 18//2
f 7//2 9//2 24//2
f 7//2 24//2 25//2
f 7//7 25//7 16//7
f 7//7 16//7 8//7
f 9//8 30//8 24//8
f 30//8 12//8 24//8
f 17//9 25//9 24//9
f 17//6 24//6 15//6
f 23//3 22//3 21//3
f 23//3 21//3 19//3
f 19//8 18//8 20//8
f 19//8 20//8 23//8
f 20//6 18//6 16//6
f 20//6 16//6 17//6
f 15//10 12//10 13//10
f 15//6 13//6 14//6
f 20//1 14//1 22//1
f 20//1 22//1 23//1
f 4//2 1//2 2//2
f 4//2 2//2 10//2
f 9//3 10//3 11//3
f 9//3 11//3 30//3
f 4//3 7//3 8//3
f 4//11 8//11 6//11
f 5//7 1//7 4//7
f 5//7 4//7 6//7
f 1//6 5//6 3//6
f 1//6 3//6 2//6
