# Blender3D v246 OBJ File: prismdemo.blend
# www.blender3d.org
v -0.800000 0.500000 0.000000
v 0.800000 -0.000000 0.000000
v -0.800000 -0.500000 0.000000
v -0.800000 -0.500000 1.000000
v 0.800000 -0.000000 1.000000
v -0.800000 0.500000 1.000000
vn 0.000000 0.000000 1.000000
vn -1.000000 0.000001 0.000000
vn 0.298275 -0.954480 0.000000
vn 0.298275 0.954480 0.000000
usemtl (null)
s off
f 6//1 4//1 5//1
f 1//2 3//2 4//2
f 1//2 4//2 6//2
f 2//3 5//3 4//3
f 2//3 4//3 3//3
f 1//4 6//4 5//4
f 1//4 5//4 2//4
